<?xml version="1.0" encoding="UTF-8" standalone="no"?>
<!DOCTYPE svg PUBLIC "-//W3C//DTD SVG 1.1//EN" "http://www.w3.org/Graphics/SVG/1.1/DTD/svg11.dtd">
<svg width="3001" height="3001" viewBox="0 0 3001 3001" xmlns="http://www.w3.org/2000/svg" xmlns:xlink="http://www.w3.org/1999/xlink">
<defs>
<pattern id="grid" patternUnits="userSpaceOnUse" viewBox="0 0 200 200" width="200" height="200"><rect x=".5" y=".5" width="200" height="200" stroke="black" fill="white" /></pattern>
<marker id="top-vert" viewBox="-5 -5 10 10" markerUnits="userSpaceOnUse" markerWidth="10" markerHeight="10"><circle r="5" fill="red"/><circle r="3" fill="white"/></marker>
<marker id="vert" viewBox="-5 -5 10 10" markerUnits="userSpaceOnUse" markerWidth="10" markerHeight="10"><circle r="5" fill="red"/></marker>
</defs>
<rect x=".5" y=".5" width="3000" height="3000" stroke="black" fill="#999"/>
<rect width="3001" height="2601" fill="url(#grid)"/>
<rect y="2600" width="1401" height="201" fill="url(#grid)"/>
<text x="10" y="15">11111111</text>
<text x="210" y="15">11111272</text>
<text x="410" y="15">11112163</text>
<text x="610" y="15">11113773</text>
<text x="810" y="15">11121154</text>
<text x="1010" y="15">11122522</text>
<text x="1210" y="15">11122764</text>
<text x="1410" y="15">11127372</text>
<text x="1610" y="15">11131513</text>
<text x="1810" y="15">11131674</text>
<text x="2010" y="15">11136363</text>
<text x="2210" y="15">11137254</text>
<text x="2410" y="15">11146164</text>
<text x="2610" y="15">11147774</text>
<text x="2810" y="15">11212432</text>
<text x="10" y="215">11212755</text>
<text x="210" y="215">11216472</text>
<text x="410" y="215">11221423</text>
<text x="610" y="215">11221665</text>
<text x="810" y="215">11225463</text>
<text x="1010" y="215">11227245</text>
<text x="1210" y="215">11234373</text>
<text x="1410" y="215">11236155</text>
<text x="1610" y="215">11236632</text>
<text x="1810" y="215">11237523</text>
<text x="2010" y="215">11237765</text>
<text x="2210" y="215">11272272</text>
<text x="2410" y="215">11273163</text>
<text x="2610" y="215">11274773</text>
<text x="2810" y="215">11311414</text>
<text x="10" y="415">11311575</text>
<text x="210" y="415">11315454</text>
<text x="410" y="415">11316345</text>
<text x="610" y="415">11324364</text>
<text x="810" y="415">11325255</text>
<text x="1010" y="415">11327514</text>
<text x="1210" y="415">11327675</text>
<text x="1410" y="415">11363154</text>
<text x="1610" y="415">11364764</text>
<text x="1810" y="415">11372145</text>
<text x="2010" y="415">11373755</text>
<text x="2210" y="415">11414274</text>
<text x="2410" y="415">11415165</text>
<text x="2610" y="415">11416614</text>
<text x="2810" y="415">11452254</text>
<text x="10" y="615">11454674</text>
<text x="210" y="615">11461245</text>
<text x="410" y="615">11463665</text>
<text x="610" y="615">11472575</text>
<text x="810" y="615">11477345</text>
<text x="1010" y="615">11551155</text>
<text x="1210" y="615">11552765</text>
<text x="1410" y="615">11561675</text>
<text x="1610" y="615">12121333</text>
<text x="1810" y="615">12121656</text>
<text x="2010" y="615">12124563</text>
<text x="2210" y="615">12127236</text>
<text x="2410" y="615">12133473</text>
<text x="2610" y="615">12136146</text>
<text x="2810" y="615">12214554</text>
<text x="10" y="815">12216336</text>
<text x="210" y="815">12223222</text>
<text x="410" y="815">12223464</text>
<text x="610" y="815">12225246</text>
<text x="810" y="815">12225642</text>
<text x="1010" y="815">12227424</text>
<text x="1210" y="815">12227666</text>
<text x="1410" y="815">12252372</text>
<text x="1610" y="815">12254154</text>
<text x="1810" y="815">12255522</text>
<text x="2010" y="815">12255764</text>
<text x="2210" y="815">12272136</text>
<text x="2410" y="815">12273342</text>
<text x="2610" y="815">12273746</text>
<text x="2810" y="815">12276572</text>
<text x="10" y="1015">12313213</text>
<text x="210" y="1015">12313374</text>
<text x="410" y="1015">12315156</text>
<text x="610" y="1015">12315633</text>
<text x="810" y="1015">12316524</text>
<text x="1010" y="1015">12342363</text>
<text x="1210" y="1015">12343254</text>
<text x="1410" y="1015">12345513</text>
<text x="1610" y="1015">12345674</text>
<text x="1810" y="1015">12361236</text>
<text x="2010" y="1015">12363333</text>
<text x="2210" y="1015">12363656</text>
<text x="2410" y="1015">12366563</text>
<text x="2610" y="1015">12372324</text>
<text x="2810" y="1015">12372566</text>
<text x="10" y="1215">12375554</text>
<text x="210" y="1215">12432273</text>
<text x="410" y="1215">12433164</text>
<text x="610" y="1215">12434613</text>
<text x="810" y="1215">12451542</text>
<text x="1010" y="1215">12452433</text>
<text x="1210" y="1215">12452756</text>
<text x="1410" y="1215">12456473</text>
<text x="1610" y="1215">12461424</text>
<text x="1810" y="1215">12461666</text>
<text x="2010" y="1215">12465464</text>
<text x="2210" y="1215">12467246</text>
<text x="2410" y="1215">12467642</text>
<text x="2610" y="1215">12474213</text>
<text x="2810" y="1215">12474374</text>
<text x="10" y="1415">12476156</text>
<text x="210" y="1415">12721272</text>
<text x="410" y="1415">12737372</text>
<text x="610" y="1415">12741513</text>
<text x="810" y="1415">12741674</text>
<text x="1010" y="1415">12746363</text>
<text x="1210" y="1415">12747254</text>
<text x="1410" y="1415">12755273</text>
<text x="1610" y="1415">12756164</text>
<text x="1810" y="1415">12757613</text>
<text x="2010" y="1415">13154145</text>
<text x="2210" y="1415">13155755</text>
<text x="2410" y="1415">13163136</text>
<text x="2610" y="1415">13164746</text>
<text x="2810" y="1415">13241463</text>
<text x="10" y="1615">13243245</text>
<text x="210" y="1615">13245423</text>
<text x="410" y="1615">13245665</text>
<text x="610" y="1615">13252236</text>
<text x="810" y="1615">13254333</text>
<text x="1010" y="1615">13254656</text>
<text x="1210" y="1615">13257563</text>
<text x="1410" y="1615">13272315</text>
<text x="1610" y="1615">13275545</text>
<text x="1810" y="1615">13331373</text>
<text x="2010" y="1615">13333155</text>
<text x="2210" y="1615">13343433</text>
<text x="2410" y="1615">13347473</text>
<text x="2610" y="1615">13361415</text>
<text x="2810" y="1615">13365455</text>
<text x="10" y="1815">13366346</text>
<text x="210" y="1815">13374365</text>
<text x="410" y="1815">13375256</text>
<text x="610" y="1815">13641665</text>
<text x="810" y="1815">13645463</text>
<text x="1010" y="1815">13647245</text>
<text x="1210" y="1815">13654373</text>
<text x="1410" y="1815">13656155</text>
<text x="1610" y="1815">13722746</text>
<text x="1810" y="1815">13731656</text>
<text x="2010" y="1815">13737236</text>
<text x="2210" y="1815">13743473</text>
<text x="2410" y="1815">13746146</text>
<text x="2610" y="1815">14141454</text>
<text x="2810" y="1815">14142345</text>
<text x="10" y="2015">14154566</text>
<text x="210" y="2015">14232255</text>
<text x="410" y="2015">14243424</text>
<text x="610" y="2015">14243666</text>
<text x="810" y="2015">14247464</text>
<text x="1010" y="2015">14252415</text>
<text x="1210" y="2015">14256455</text>
<text x="1410" y="2015">14545454</text>
<text x="1610" y="2015">14546345</text>
<text x="1810" y="2015">14554364</text>
<text x="2010" y="2015">14555255</text>
<text x="2210" y="2015">14636336</text>
<text x="2410" y="2015">14643464</text>
<text x="2610" y="2015">14645246</text>
<text x="2810" y="2015">14724545</text>
<text x="10" y="2215">14725436</text>
<text x="210" y="2215">14733455</text>
<text x="410" y="2215">14737415</text>
<text x="610" y="2215">15151515</text>
<text x="810" y="2215">15156365</text>
<text x="1010" y="2215">15166166</text>
<text x="1210" y="2215">15423665</text>
<text x="1410" y="2215">15437345</text>
<text x="1610" y="2215">15455165</text>
<text x="1810" y="2215">15522566</text>
<text x="2010" y="2215">15527336</text>
<text x="2210" y="2215">15616436</text>
<text x="2410" y="2215">15633365</text>
<text x="2610" y="2215">15634256</text>
<text x="2810" y="2215">15665665</text>
<text x="10" y="2415">16427246</text>
<text x="210" y="2415">16525256</text>
<text x="410" y="2415">16663666</text>
<text x="610" y="2415">22232463</text>
<text x="810" y="2415">22234245</text>
<text x="1010" y="2415">22236665</text>
<text x="1210" y="2415">22325523</text>
<text x="1410" y="2415">22343343</text>
<text x="1610" y="2415">22364555</text>
<text x="1810" y="2415">23243334</text>
<text x="2010" y="2415">23246564</text>
<text x="2210" y="2415">23252325</text>
<text x="2410" y="2415">23255555</text>
<text x="2610" y="2415">23455454</text>
<text x="2810" y="2415">23456345</text>
<text x="10" y="2615">23464364</text>
<text x="210" y="2615">23465255</text>
<text x="410" y="2615">23642564</text>
<text x="610" y="2615">24346454</text>
<text x="810" y="2615">24636425</text>
<text x="1010" y="2615">33333333</text>
<text x="1210" y="2615">33345554</text>
<g stroke="black" stroke-linejoin="bevel" stroke-width="3" fill="none" marker-start="url(#top-vert)" marker-mid="url(#vert)">
<path d="M100,50L135,65L150,100L135,135L100,150L65,135L50,100L65,65Z"/>
<path d="M300,50L335,65L350,100L335,135L300,150L265,135L265,65L250,100Z"/>
<path d="M500,50L535,65L550,100L535,135L500,150L450,100L465,65L465,135Z"/>
<path d="M700,50L735,65L750,100L735,135L700,150L665,65L650,100L665,135Z"/>
<path d="M900,50L935,65L950,100L935,135L865,135L850,100L865,65L900,150Z"/>
<path d="M1100,50L1135,65L1150,100L1135,135L1065,135L1065,65L1100,150L1050,100Z"/>
<path d="M1300,50L1335,65L1350,100L1335,135L1265,135L1265,65L1250,100L1300,150Z"/>
<path d="M1500,50L1535,65L1550,100L1535,135L1465,135L1500,150L1465,65L1450,100Z"/>
<path d="M1700,50L1735,65L1750,100L1735,135L1650,100L1665,65L1700,150L1665,135Z"/>
<path d="M1900,50L1935,65L1950,100L1935,135L1850,100L1865,65L1865,135L1900,150Z"/>
<path d="M2100,50L2135,65L2150,100L2135,135L2050,100L2100,150L2065,65L2065,135Z"/>
<path d="M2300,50L2335,65L2350,100L2335,135L2250,100L2265,135L2265,65L2300,150Z"/>
<path d="M2500,50L2535,65L2550,100L2535,135L2465,65L2465,135L2450,100L2500,150Z"/>
<path d="M2700,50L2735,65L2750,100L2735,135L2665,65L2650,100L2665,135L2700,150Z"/>
<path d="M2900,50L2935,65L2950,100L2900,150L2865,135L2865,65L2935,135L2850,100Z"/>
<path d="M100,250L135,265L150,300L100,350L65,335L65,265L50,300L135,335Z"/>
<path d="M300,250L335,265L350,300L300,350L265,335L335,335L265,265L250,300Z"/>
<path d="M500,250L535,265L550,300L500,350L450,300L465,265L535,335L465,335Z"/>
<path d="M700,250L735,265L750,300L700,350L650,300L665,265L665,335L735,335Z"/>
<path d="M900,250L935,265L950,300L900,350L850,300L935,335L865,265L865,335Z"/>
<path d="M1100,250L1135,265L1150,300L1100,350L1050,300L1065,335L1065,265L1135,335Z"/>
<path d="M1300,250L1335,265L1350,300L1300,350L1265,265L1335,335L1250,300L1265,335Z"/>
<path d="M1500,250L1535,265L1550,300L1500,350L1465,265L1465,335L1450,300L1535,335Z"/>
<path d="M1700,250L1735,265L1750,300L1700,350L1665,265L1665,335L1735,335L1650,300Z"/>
<path d="M1900,250L1935,265L1950,300L1900,350L1865,265L1850,300L1935,335L1865,335Z"/>
<path d="M2100,250L2135,265L2150,300L2100,350L2065,265L2050,300L2065,335L2135,335Z"/>
<path d="M2300,250L2335,265L2350,300L2300,350L2335,335L2265,335L2265,265L2250,300Z"/>
<path d="M2500,250L2535,265L2550,300L2500,350L2535,335L2450,300L2465,265L2465,335Z"/>
<path d="M2700,250L2735,265L2750,300L2700,350L2735,335L2665,265L2650,300L2665,335Z"/>
<path d="M2900,250L2935,265L2950,300L2865,335L2850,300L2865,265L2935,335L2900,350Z"/>
<path d="M100,450L135,465L150,500L65,535L50,500L65,465L100,550L135,535Z"/>
<path d="M300,450L335,465L350,500L265,535L250,500L335,535L265,465L300,550Z"/>
<path d="M500,450L535,465L550,500L465,535L450,500L500,550L465,465L535,535Z"/>
<path d="M700,450L735,465L750,500L665,535L665,465L735,535L650,500L700,550Z"/>
<path d="M900,450L935,465L950,500L865,535L865,465L900,550L850,500L935,535Z"/>
<path d="M1100,450L1135,465L1150,500L1065,535L1065,465L1050,500L1135,535L1100,550Z"/>
<path d="M1300,450L1335,465L1350,500L1265,535L1265,465L1250,500L1300,550L1335,535Z"/>
<path d="M1500,450L1535,465L1550,500L1465,535L1535,535L1450,500L1465,465L1500,550Z"/>
<path d="M1700,450L1735,465L1750,500L1665,535L1735,535L1665,465L1650,500L1700,550Z"/>
<path d="M1900,450L1935,465L1950,500L1865,535L1900,550L1850,500L1865,465L1935,535Z"/>
<path d="M2100,450L2135,465L2150,500L2065,535L2100,550L2065,465L2050,500L2135,535Z"/>
<path d="M2300,450L2335,465L2350,500L2250,500L2265,465L2335,535L2265,535L2300,550Z"/>
<path d="M2500,450L2535,465L2550,500L2450,500L2465,465L2500,550L2465,535L2535,535Z"/>
<path d="M2700,450L2735,465L2750,500L2650,500L2665,465L2665,535L2735,535L2700,550Z"/>
<path d="M2900,450L2935,465L2950,500L2850,500L2935,535L2865,535L2865,465L2900,550Z"/>
<path d="M100,650L135,665L150,700L50,700L135,735L65,665L65,735L100,750Z"/>
<path d="M300,650L335,665L350,700L250,700L300,750L265,735L265,665L335,735Z"/>
<path d="M500,650L535,665L550,700L450,700L500,750L465,665L465,735L535,735Z"/>
<path d="M700,650L735,665L750,700L650,700L665,735L665,665L700,750L735,735Z"/>
<path d="M900,650L935,665L950,700L850,700L865,735L900,750L865,665L935,735Z"/>
<path d="M1100,650L1135,665L1150,700L1065,665L1100,750L1065,735L1050,700L1135,735Z"/>
<path d="M1300,650L1335,665L1350,700L1265,665L1300,750L1250,700L1265,735L1335,735Z"/>
<path d="M1500,650L1535,665L1550,700L1465,665L1465,735L1450,700L1500,750L1535,735Z"/>
<path d="M1700,650L1735,665L1735,735L1700,750L1650,700L1665,665L1750,700L1665,735Z"/>
<path d="M1900,650L1935,665L1935,735L1900,750L1850,700L1865,665L1865,735L1950,700Z"/>
<path d="M2100,650L2135,665L2135,735L2100,750L2050,700L2150,700L2065,665L2065,735Z"/>
<path d="M2300,650L2335,665L2335,735L2300,750L2250,700L2265,735L2265,665L2350,700Z"/>
<path d="M2500,650L2535,665L2535,735L2500,750L2465,665L2550,700L2450,700L2465,735Z"/>
<path d="M2700,650L2735,665L2735,735L2700,750L2665,665L2665,735L2650,700L2750,700Z"/>
<path d="M2900,650L2935,665L2935,735L2865,735L2850,700L2950,700L2865,665L2900,750Z"/>
<path d="M100,850L135,865L135,935L65,935L50,900L100,950L65,865L150,900Z"/>
<path d="M300,850L335,865L335,935L265,935L265,865L350,900L300,950L250,900Z"/>
<path d="M500,850L535,865L535,935L465,935L465,865L550,900L450,900L500,950Z"/>
<path d="M700,850L735,865L735,935L665,935L665,865L700,950L650,900L750,900Z"/>
<path d="M900,850L935,865L935,935L865,935L865,865L900,950L950,900L850,900Z"/>
<path d="M1100,850L1135,865L1135,935L1065,935L1065,865L1050,900L1150,900L1100,950Z"/>
<path d="M1300,850L1335,865L1335,935L1265,935L1265,865L1250,900L1300,950L1350,900Z"/>
<path d="M1500,850L1535,865L1535,935L1465,935L1550,900L1500,950L1465,865L1450,900Z"/>
<path d="M1700,850L1735,865L1735,935L1665,935L1750,900L1650,900L1665,865L1700,950Z"/>
<path d="M1900,850L1935,865L1935,935L1865,935L1950,900L1865,865L1900,950L1850,900Z"/>
<path d="M2100,850L2135,865L2135,935L2065,935L2150,900L2065,865L2050,900L2100,950Z"/>
<path d="M2300,850L2335,865L2335,935L2265,935L2300,950L2250,900L2265,865L2350,900Z"/>
<path d="M2500,850L2535,865L2535,935L2465,935L2500,950L2465,865L2550,900L2450,900Z"/>
<path d="M2700,850L2735,865L2735,935L2665,935L2700,950L2665,865L2650,900L2750,900Z"/>
<path d="M2900,850L2935,865L2935,935L2865,935L2900,950L2950,900L2865,865L2850,900Z"/>
<path d="M100,1050L135,1065L135,1135L50,1100L65,1065L150,1100L100,1150L65,1135Z"/>
<path d="M300,1050L335,1065L335,1135L250,1100L265,1065L350,1100L265,1135L300,1150Z"/>
<path d="M500,1050L535,1065L535,1135L450,1100L465,1065L500,1150L465,1135L550,1100Z"/>
<path d="M700,1050L735,1065L735,1135L650,1100L665,1065L700,1150L750,1100L665,1135Z"/>
<path d="M900,1050L935,1065L935,1135L850,1100L865,1065L865,1135L950,1100L900,1150Z"/>
<path d="M1100,1050L1135,1065L1135,1135L1050,1100L1150,1100L1100,1150L1065,1065L1065,1135Z"/>
<path d="M1300,1050L1335,1065L1335,1135L1250,1100L1350,1100L1265,1135L1265,1065L1300,1150Z"/>
<path d="M1500,1050L1535,1065L1535,1135L1450,1100L1550,1100L1465,1065L1500,1150L1465,1135Z"/>
<path d="M1700,1050L1735,1065L1735,1135L1650,1100L1750,1100L1665,1065L1665,1135L1700,1150Z"/>
<path d="M1900,1050L1935,1065L1935,1135L1850,1100L1900,1150L1865,1135L1865,1065L1950,1100Z"/>
<path d="M2100,1050L2135,1065L2135,1135L2050,1100L2100,1150L2065,1065L2150,1100L2065,1135Z"/>
<path d="M2300,1050L2335,1065L2335,1135L2250,1100L2300,1150L2265,1065L2265,1135L2350,1100Z"/>
<path d="M2500,1050L2535,1065L2535,1135L2450,1100L2500,1150L2550,1100L2465,1065L2465,1135Z"/>
<path d="M2700,1050L2735,1065L2735,1135L2650,1100L2665,1135L2665,1065L2750,1100L2700,1150Z"/>
<path d="M2900,1050L2935,1065L2935,1135L2850,1100L2865,1135L2865,1065L2900,1150L2950,1100Z"/>
<path d="M100,1250L135,1265L135,1335L50,1300L65,1335L150,1300L65,1265L100,1350Z"/>
<path d="M300,1250L335,1265L335,1335L265,1265L350,1300L300,1350L250,1300L265,1335Z"/>
<path d="M500,1250L535,1265L535,1335L465,1265L550,1300L465,1335L450,1300L500,1350Z"/>
<path d="M700,1250L735,1265L735,1335L665,1265L750,1300L650,1300L700,1350L665,1335Z"/>
<path d="M900,1250L935,1265L935,1335L865,1265L900,1350L865,1335L950,1300L850,1300Z"/>
<path d="M1100,1250L1135,1265L1135,1335L1065,1265L1100,1350L1050,1300L1150,1300L1065,1335Z"/>
<path d="M1300,1250L1335,1265L1335,1335L1265,1265L1300,1350L1250,1300L1265,1335L1350,1300Z"/>
<path d="M1500,1250L1535,1265L1535,1335L1465,1265L1500,1350L1550,1300L1450,1300L1465,1335Z"/>
<path d="M1700,1250L1735,1265L1735,1335L1665,1265L1665,1335L1650,1300L1750,1300L1700,1350Z"/>
<path d="M1900,1250L1935,1265L1935,1335L1865,1265L1865,1335L1850,1300L1900,1350L1950,1300Z"/>
<path d="M2100,1250L2135,1265L2135,1335L2065,1265L2065,1335L2150,1300L2050,1300L2100,1350Z"/>
<path d="M2300,1250L2335,1265L2335,1335L2265,1265L2265,1335L2300,1350L2250,1300L2350,1300Z"/>
<path d="M2500,1250L2535,1265L2535,1335L2465,1265L2465,1335L2500,1350L2550,1300L2450,1300Z"/>
<path d="M2700,1250L2735,1265L2735,1335L2665,1265L2650,1300L2750,1300L2700,1350L2665,1335Z"/>
<path d="M2900,1250L2935,1265L2935,1335L2865,1265L2850,1300L2950,1300L2865,1335L2900,1350Z"/>
<path d="M100,1450L135,1465L135,1535L65,1465L50,1500L100,1550L65,1535L150,1500Z"/>
<path d="M300,1450L335,1465L335,1535L350,1500L300,1550L265,1535L265,1465L250,1500Z"/>
<path d="M500,1450L535,1465L535,1535L550,1500L465,1535L500,1550L465,1465L450,1500Z"/>
<path d="M700,1450L735,1465L735,1535L750,1500L650,1500L665,1465L700,1550L665,1535Z"/>
<path d="M900,1450L935,1465L935,1535L950,1500L850,1500L865,1465L865,1535L900,1550Z"/>
<path d="M1100,1450L1135,1465L1135,1535L1150,1500L1050,1500L1100,1550L1065,1465L1065,1535Z"/>
<path d="M1300,1450L1335,1465L1335,1535L1350,1500L1250,1500L1265,1535L1265,1465L1300,1550Z"/>
<path d="M1500,1450L1535,1465L1535,1535L1550,1500L1465,1465L1500,1550L1450,1500L1465,1535Z"/>
<path d="M1700,1450L1735,1465L1735,1535L1750,1500L1665,1465L1665,1535L1650,1500L1700,1550Z"/>
<path d="M1900,1450L1935,1465L1935,1535L1950,1500L1865,1465L1850,1500L1900,1550L1865,1535Z"/>
<path d="M2100,1450L2135,1465L2100,1550L2065,1535L2150,1500L2050,1500L2065,1465L2135,1535Z"/>
<path d="M2300,1450L2335,1465L2300,1550L2265,1535L2350,1500L2265,1465L2250,1500L2335,1535Z"/>
<path d="M2500,1450L2535,1465L2500,1550L2465,1535L2535,1535L2450,1500L2465,1465L2550,1500Z"/>
<path d="M2700,1450L2735,1465L2700,1550L2665,1535L2735,1535L2665,1465L2650,1500L2750,1500Z"/>
<path d="M2900,1450L2935,1465L2900,1550L2850,1500L2950,1500L2935,1535L2865,1465L2865,1535Z"/>
<path d="M100,1650L135,1665L100,1750L50,1700L150,1700L65,1735L65,1665L135,1735Z"/>
<path d="M300,1650L335,1665L300,1750L250,1700L350,1700L265,1665L335,1735L265,1735Z"/>
<path d="M500,1650L535,1665L500,1750L450,1700L550,1700L465,1665L465,1735L535,1735Z"/>
<path d="M700,1650L735,1665L700,1750L650,1700L735,1735L665,1735L665,1665L750,1700Z"/>
<path d="M900,1650L935,1665L900,1750L850,1700L935,1735L865,1665L950,1700L865,1735Z"/>
<path d="M1100,1650L1135,1665L1100,1750L1050,1700L1135,1735L1065,1665L1065,1735L1150,1700Z"/>
<path d="M1300,1650L1335,1665L1300,1750L1250,1700L1335,1735L1350,1700L1265,1665L1265,1735Z"/>
<path d="M1500,1650L1535,1665L1500,1750L1450,1700L1465,1735L1465,1665L1550,1700L1535,1735Z"/>
<path d="M1700,1650L1735,1665L1700,1750L1650,1700L1665,1735L1750,1700L1665,1665L1735,1735Z"/>
<path d="M1900,1650L1935,1665L1900,1750L1865,1665L1950,1700L1935,1735L1850,1700L1865,1735Z"/>
<path d="M2100,1650L2135,1665L2100,1750L2065,1665L2150,1700L2065,1735L2050,1700L2135,1735Z"/>
<path d="M2300,1650L2335,1665L2300,1750L2265,1665L2335,1735L2250,1700L2350,1700L2265,1735Z"/>
<path d="M2500,1650L2535,1665L2500,1750L2465,1665L2535,1735L2550,1700L2450,1700L2465,1735Z"/>
<path d="M2700,1650L2735,1665L2700,1750L2665,1665L2665,1735L2650,1700L2750,1700L2735,1735Z"/>
<path d="M2900,1650L2935,1665L2900,1750L2865,1665L2865,1735L2950,1700L2850,1700L2935,1735Z"/>
<path d="M100,1850L135,1865L100,1950L65,1865L65,1935L135,1935L50,1900L150,1900Z"/>
<path d="M300,1850L335,1865L300,1950L265,1865L250,1900L350,1900L265,1935L335,1935Z"/>
<path d="M500,1850L535,1865L500,1950L465,1865L450,1900L535,1935L465,1935L550,1900Z"/>
<path d="M700,1850L735,1865L700,1950L750,1900L650,1900L665,1865L665,1935L735,1935Z"/>
<path d="M900,1850L935,1865L900,1950L950,1900L850,1900L935,1935L865,1865L865,1935Z"/>
<path d="M1100,1850L1135,1865L1100,1950L1150,1900L1050,1900L1065,1935L1065,1865L1135,1935Z"/>
<path d="M1300,1850L1335,1865L1300,1950L1350,1900L1265,1865L1335,1935L1250,1900L1265,1935Z"/>
<path d="M1500,1850L1535,1865L1500,1950L1550,1900L1465,1865L1465,1935L1450,1900L1535,1935Z"/>
<path d="M1700,1850L1735,1865L1700,1950L1735,1935L1665,1935L1665,1865L1650,1900L1750,1900Z"/>
<path d="M1900,1850L1935,1865L1900,1950L1935,1935L1850,1900L1865,1865L1865,1935L1950,1900Z"/>
<path d="M2100,1850L2135,1865L2100,1950L2135,1935L2050,1900L2065,1935L2065,1865L2150,1900Z"/>
<path d="M2300,1850L2335,1865L2300,1950L2335,1935L2265,1865L2350,1900L2250,1900L2265,1935Z"/>
<path d="M2500,1850L2535,1865L2500,1950L2535,1935L2465,1865L2465,1935L2450,1900L2550,1900Z"/>
<path d="M2700,1850L2735,1865L2665,1935L2650,1900L2750,1900L2735,1935L2665,1865L2700,1950Z"/>
<path d="M2900,1850L2935,1865L2865,1935L2850,1900L2950,1900L2900,1950L2865,1865L2935,1935Z"/>
<path d="M100,2050L135,2065L65,2135L50,2100L135,2135L65,2065L100,2150L150,2100Z"/>
<path d="M300,2050L335,2065L265,2135L265,2065L350,2100L300,2150L250,2100L335,2135Z"/>
<path d="M500,2050L535,2065L465,2135L465,2065L535,2135L450,2100L550,2100L500,2150Z"/>
<path d="M700,2050L735,2065L665,2135L665,2065L735,2135L650,2100L700,2150L750,2100Z"/>
<path d="M900,2050L935,2065L865,2135L865,2065L935,2135L950,2100L850,2100L900,2150Z"/>
<path d="M1100,2050L1135,2065L1065,2135L1065,2065L1100,2150L1050,2100L1150,2100L1135,2135Z"/>
<path d="M1300,2050L1335,2065L1265,2135L1265,2065L1300,2150L1350,2100L1250,2100L1335,2135Z"/>
<path d="M1500,2050L1535,2065L1465,2135L1550,2100L1450,2100L1535,2135L1465,2065L1500,2150Z"/>
<path d="M1700,2050L1735,2065L1665,2135L1750,2100L1650,2100L1700,2150L1665,2065L1735,2135Z"/>
<path d="M1900,2050L1935,2065L1865,2135L1950,2100L1865,2065L1935,2135L1850,2100L1900,2150Z"/>
<path d="M2100,2050L2135,2065L2065,2135L2150,2100L2065,2065L2100,2150L2050,2100L2135,2135Z"/>
<path d="M2300,2050L2335,2065L2265,2135L2335,2135L2250,2100L2300,2150L2265,2065L2350,2100Z"/>
<path d="M2500,2050L2535,2065L2465,2135L2535,2135L2465,2065L2550,2100L2450,2100L2500,2150Z"/>
<path d="M2700,2050L2735,2065L2665,2135L2735,2135L2665,2065L2700,2150L2650,2100L2750,2100Z"/>
<path d="M2900,2050L2935,2065L2865,2135L2900,2150L2850,2100L2950,2100L2865,2065L2935,2135Z"/>
<path d="M100,2250L135,2265L65,2335L100,2350L50,2300L135,2335L65,2265L150,2300Z"/>
<path d="M300,2250L335,2265L265,2335L300,2350L265,2265L350,2300L250,2300L335,2335Z"/>
<path d="M500,2250L535,2265L465,2335L500,2350L465,2265L450,2300L550,2300L535,2335Z"/>
<path d="M700,2250L735,2265L650,2300L665,2265L700,2350L665,2335L750,2300L735,2335Z"/>
<path d="M900,2250L935,2265L850,2300L865,2265L900,2350L950,2300L865,2335L935,2335Z"/>
<path d="M1100,2250L1135,2265L1050,2300L1065,2265L1065,2335L1135,2335L1100,2350L1150,2300Z"/>
<path d="M1300,2250L1335,2265L1250,2300L1350,2300L1300,2350L1265,2265L1265,2335L1335,2335Z"/>
<path d="M1500,2250L1535,2265L1450,2300L1550,2300L1465,2335L1500,2350L1465,2265L1535,2335Z"/>
<path d="M1700,2250L1735,2265L1650,2300L1750,2300L1665,2265L1700,2350L1665,2335L1735,2335Z"/>
<path d="M1900,2250L1935,2265L1850,2300L1935,2335L1865,2335L1865,2265L1900,2350L1950,2300Z"/>
<path d="M2100,2250L2135,2265L2050,2300L2135,2335L2065,2335L2100,2350L2065,2265L2150,2300Z"/>
<path d="M2300,2250L2335,2265L2250,2300L2300,2350L2265,2335L2335,2335L2265,2265L2350,2300Z"/>
<path d="M2500,2250L2535,2265L2450,2300L2500,2350L2465,2265L2550,2300L2465,2335L2535,2335Z"/>
<path d="M2700,2250L2735,2265L2650,2300L2700,2350L2665,2265L2735,2335L2665,2335L2750,2300Z"/>
<path d="M2900,2250L2935,2265L2850,2300L2900,2350L2950,2300L2865,2265L2865,2335L2935,2335Z"/>
<path d="M100,2450L135,2465L65,2465L135,2535L65,2535L100,2550L50,2500L150,2500Z"/>
<path d="M300,2450L335,2465L265,2465L300,2550L250,2500L335,2535L265,2535L350,2500Z"/>
<path d="M500,2450L535,2465L465,2465L465,2535L535,2535L450,2500L500,2550L550,2500Z"/>
<path d="M700,2450L750,2500L700,2550L650,2500L735,2465L735,2535L665,2465L665,2535Z"/>
<path d="M900,2450L950,2500L900,2550L850,2500L935,2465L865,2535L865,2465L935,2535Z"/>
<path d="M1100,2450L1150,2500L1100,2550L1050,2500L1135,2465L1065,2465L1065,2535L1135,2535Z"/>
<path d="M1300,2450L1350,2500L1300,2550L1265,2465L1335,2465L1250,2500L1335,2535L1265,2535Z"/>
<path d="M1500,2450L1550,2500L1500,2550L1465,2465L1535,2535L1450,2500L1535,2465L1465,2535Z"/>
<path d="M1700,2450L1750,2500L1700,2550L1665,2465L1665,2535L1735,2465L1650,2500L1735,2535Z"/>
<path d="M1900,2450L1950,2500L1865,2535L1865,2465L1935,2535L1850,2500L1935,2465L1900,2550Z"/>
<path d="M2100,2450L2150,2500L2065,2535L2065,2465L2135,2535L2135,2465L2050,2500L2100,2550Z"/>
<path d="M2300,2450L2350,2500L2265,2535L2265,2465L2300,2550L2250,2500L2335,2465L2335,2535Z"/>
<path d="M2500,2450L2550,2500L2465,2535L2465,2465L2500,2550L2535,2465L2450,2500L2535,2535Z"/>
<path d="M2700,2450L2750,2500L2665,2535L2735,2465L2650,2500L2735,2535L2665,2465L2700,2550Z"/>
<path d="M2900,2450L2950,2500L2865,2535L2935,2465L2850,2500L2900,2550L2865,2465L2935,2535Z"/>
<path d="M100,2650L150,2700L65,2735L135,2665L65,2665L135,2735L50,2700L100,2750Z"/>
<path d="M300,2650L350,2700L265,2735L335,2665L265,2665L300,2750L250,2700L335,2735Z"/>
<path d="M500,2650L550,2700L465,2735L535,2735L465,2665L535,2665L450,2700L500,2750Z"/>
<path d="M700,2650L750,2700L650,2700L735,2665L665,2735L735,2735L665,2665L700,2750Z"/>
<path d="M900,2650L950,2700L850,2700L900,2750L865,2665L865,2735L935,2665L935,2735Z"/>
<path d="M1100,2650L1135,2735L1050,2700L1135,2665L1100,2750L1065,2665L1150,2700L1065,2735Z"/>
<path d="M1300,2650L1335,2735L1250,2700L1335,2665L1265,2735L1350,2700L1265,2665L1300,2750Z"/>
</g>
</svg>