<?xml version="1.0" encoding="UTF-8" standalone="no"?>
<!DOCTYPE svg PUBLIC "-//W3C//DTD SVG 1.1//EN" "http://www.w3.org/Graphics/SVG/1.1/DTD/svg11.dtd">
<svg width="801" height="801" viewBox="0 0 801 801" xmlns="http://www.w3.org/2000/svg" xmlns:xlink="http://www.w3.org/1999/xlink">
<defs>
<pattern id="grid" patternUnits="userSpaceOnUse" viewBox="0 0 200 200" width="200" height="200"><rect x=".5" y=".5" width="200" height="200" stroke="black" fill="white" /></pattern>
<marker id="top-vert" viewBox="-5 -5 10 10" markerUnits="userSpaceOnUse" markerWidth="10" markerHeight="10"><circle r="5" fill="red"/><circle r="3" fill="white"/></marker>
<marker id="vert" viewBox="-5 -5 10 10" markerUnits="userSpaceOnUse" markerWidth="10" markerHeight="10"><circle r="5" fill="red"/></marker>
</defs>
<rect x=".5" y=".5" width="800" height="800" stroke="black" fill="#999"/>
<rect width="801" height="601" fill="url(#grid)"/>
<text x="10" y="15">111111</text>
<text x="210" y="15">111252</text>
<text x="410" y="15">112143</text>
<text x="610" y="15">113553</text>
<text x="10" y="215">122322</text>
<text x="210" y="215">122544</text>
<text x="410" y="215">125352</text>
<text x="610" y="215">131313</text>
<text x="10" y="415">134343</text>
<text x="210" y="415">135234</text>
<text x="410" y="415">144144</text>
<text x="610" y="415">223443</text>
<g stroke="black" stroke-linejoin="bevel" stroke-width="3" fill="none" marker-start="url(#top-vert)" marker-mid="url(#vert)">
<path d="M100,50L143,75L143,125L100,150L57,125L57,75Z"/>
<path d="M300,50L343,75L343,125L300,150L257,75L257,125Z"/>
<path d="M500,50L543,75L543,125L457,125L457,75L500,150Z"/>
<path d="M700,50L743,75L743,125L657,75L657,125L700,150Z"/>
<path d="M100,250L143,275L100,350L57,275L143,325L57,325Z"/>
<path d="M300,250L343,275L300,350L257,275L257,325L343,325Z"/>
<path d="M500,250L543,275L500,350L543,325L457,275L457,325Z"/>
<path d="M700,250L743,275L657,325L657,275L743,325L700,350Z"/>
<path d="M100,450L143,475L57,525L143,525L57,475L100,550Z"/>
<path d="M300,450L343,475L257,525L300,550L257,475L343,525Z"/>
<path d="M500,450L543,475L457,475L500,550L457,525L543,525Z"/>
<path d="M700,450L743,525L657,525L743,475L657,475L700,550Z"/>
</g>
</svg>