<?xml version="1.0" encoding="UTF-8" standalone="no"?>
<!DOCTYPE svg PUBLIC "-//W3C//DTD SVG 1.1//EN" "http://www.w3.org/Graphics/SVG/1.1/DTD/svg11.dtd">
<svg width="400" height="400" viewBox="0 0 400 400" xmlns="http://www.w3.org/2000/svg" xmlns:xlink="http://www.w3.org/1999/xlink">
<rect fill="#999" stroke="#000" x="0" y="0" width="400" height="400"/><rect fill="#fff" stroke="#000" x="0" y="0" width="200" height="200"/><text x="10" y="15">11111</text><polyline points="100,50 148,85 129,140 71,140 52,85 100,50" stroke="black" stroke-width="3" fill="none" />
<circle cx="100" cy="50" r="5" fill="red" />
<circle cx="148" cy="85" r="5" fill="red" />
<circle cx="129" cy="140" r="5" fill="red" />
<circle cx="71" cy="140" r="5" fill="red" />
<circle cx="52" cy="85" r="5" fill="red" />
<circle cx="100" cy="50" r="3" fill="white" />
<rect fill="#fff" stroke="#000" x="200" y="0" width="200" height="200"/><text x="210" y="15">11242</text><polyline points="300,50 348,85 329,140 252,85 271,140 300,50" stroke="black" stroke-width="3" fill="none" />
<circle cx="300" cy="50" r="5" fill="red" />
<circle cx="348" cy="85" r="5" fill="red" />
<circle cx="329" cy="140" r="5" fill="red" />
<circle cx="271" cy="140" r="5" fill="red" />
<circle cx="252" cy="85" r="5" fill="red" />
<circle cx="300" cy="50" r="3" fill="white" />
<rect fill="#fff" stroke="#000" x="0" y="200" width="200" height="200"/><text x="10" y="215">12133</text><polyline points="100,250 148,285 71,340 52,285 129,340 100,250" stroke="black" stroke-width="3" fill="none" />
<circle cx="100" cy="250" r="5" fill="red" />
<circle cx="148" cy="285" r="5" fill="red" />
<circle cx="129" cy="340" r="5" fill="red" />
<circle cx="71" cy="340" r="5" fill="red" />
<circle cx="52" cy="285" r="5" fill="red" />
<circle cx="100" cy="250" r="3" fill="white" />
<rect fill="#fff" stroke="#000" x="200" y="200" width="200" height="200"/><text x="210" y="215">22222</text><polyline points="300,250 329,340 252,285 348,285 271,340 300,250" stroke="black" stroke-width="3" fill="none" />
<circle cx="300" cy="250" r="5" fill="red" />
<circle cx="348" cy="285" r="5" fill="red" />
<circle cx="329" cy="340" r="5" fill="red" />
<circle cx="271" cy="340" r="5" fill="red" />
<circle cx="252" cy="285" r="5" fill="red" />
<circle cx="300" cy="250" r="3" fill="white" />
</svg>