<?xml version="1.0" encoding="UTF-8" standalone="no"?>
<!DOCTYPE svg PUBLIC "-//W3C//DTD SVG 1.1//EN" "http://www.w3.org/Graphics/SVG/1.1/DTD/svg11.dtd">
<svg width="401" height="401" viewBox="0 0 401 401" xmlns="http://www.w3.org/2000/svg" xmlns:xlink="http://www.w3.org/1999/xlink">
<defs>
<pattern id="grid" patternUnits="userSpaceOnUse" viewBox="0 0 200 200" width="200" height="200"><rect x=".5" y=".5" width="200" height="200" stroke="black" fill="white" /></pattern>
<marker id="top-vert" viewBox="-5 -5 10 10" markerUnits="userSpaceOnUse" markerWidth="10" markerHeight="10"><circle r="5" fill="red"/><circle r="3" fill="white"/></marker>
<marker id="vert" viewBox="-5 -5 10 10" markerUnits="userSpaceOnUse" markerWidth="10" markerHeight="10"><circle r="5" fill="red"/></marker>
</defs>
<rect x=".5" y=".5" width="400" height="400" stroke="black" fill="#999"/>
<rect width="401" height="401" fill="url(#grid)"/>
<text x="10" y="15">11111</text>
<text x="210" y="15">11242</text>
<text x="10" y="215">12133</text>
<text x="210" y="215">22222</text>
<g stroke="black" stroke-linejoin="bevel" stroke-width="3" fill="none" marker-start="url(#top-vert)" marker-mid="url(#vert)">
<path d="M100,50L148,85L129,140L71,140L52,85Z"/>
<path d="M300,50L348,85L329,140L252,85L271,140Z"/>
<path d="M100,250L148,285L71,340L52,285L129,340Z"/>
<path d="M300,250L329,340L252,285L348,285L271,340Z"/>
</g>
</svg>