<?xml version="1.0" encoding="UTF-8" standalone="no"?>
<!DOCTYPE svg PUBLIC "-//W3C//DTD SVG 1.1//EN" "http://www.w3.org/Graphics/SVG/1.1/DTD/svg11.dtd">
<svg width="1401" height="1401" viewBox="0 0 1401 1401" xmlns="http://www.w3.org/2000/svg" xmlns:xlink="http://www.w3.org/1999/xlink">
<defs>
<pattern id="grid" patternUnits="userSpaceOnUse" viewBox="0 0 200 200" width="200" height="200"><rect x=".5" y=".5" width="200" height="200" stroke="black" fill="white" /></pattern>
<marker id="top-vert" viewBox="-5 -5 10 10" markerUnits="userSpaceOnUse" markerWidth="10" markerHeight="10"><circle r="5" fill="red"/><circle r="3" fill="white"/></marker>
<marker id="vert" viewBox="-5 -5 10 10" markerUnits="userSpaceOnUse" markerWidth="10" markerHeight="10"><circle r="5" fill="red"/></marker>
</defs>
<rect x=".5" y=".5" width="1400" height="1400" stroke="black" fill="#999"/>
<rect width="1401" height="1001" fill="url(#grid)"/>
<rect y="1000" width="801" height="201" fill="url(#grid)"/>
<text x="10" y="15">1111111</text>
<text x="210" y="15">1111262</text>
<text x="410" y="15">1112153</text>
<text x="610" y="15">1113663</text>
<text x="810" y="15">1121144</text>
<text x="1010" y="15">1122422</text>
<text x="1210" y="15">1122654</text>
<text x="10" y="215">1126362</text>
<text x="210" y="215">1131413</text>
<text x="410" y="215">1131564</text>
<text x="610" y="215">1135353</text>
<text x="810" y="215">1136244</text>
<text x="1010" y="215">1145154</text>
<text x="1210" y="215">1212332</text>
<text x="10" y="415">1212645</text>
<text x="210" y="415">1221323</text>
<text x="410" y="415">1221555</text>
<text x="610" y="415">1224453</text>
<text x="810" y="415">1226235</text>
<text x="1010" y="415">1233363</text>
<text x="1210" y="415">1235145</text>
<text x="10" y="615">1235532</text>
<text x="210" y="615">1236423</text>
<text x="410" y="615">1262262</text>
<text x="610" y="615">1263153</text>
<text x="810" y="615">1314444</text>
<text x="1010" y="615">1315335</text>
<text x="1210" y="615">1323354</text>
<text x="10" y="815">1324245</text>
<text x="210" y="815">1326414</text>
<text x="410" y="815">1353144</text>
<text x="610" y="815">1414155</text>
<text x="810" y="815">1442244</text>
<text x="1010" y="815">1453555</text>
<text x="1210" y="815">2222222</text>
<text x="10" y="1015">2222454</text>
<text x="210" y="1015">2332353</text>
<text x="410" y="1015">2333244</text>
<text x="610" y="1015">3333333</text>
<g stroke="black" stroke-linejoin="bevel" stroke-width="3" fill="none" marker-start="url(#top-vert)" marker-mid="url(#vert)">
<path d="M100,50L139,69L149,111L122,145L78,145L51,111L61,69Z"/>
<path d="M300,50L339,69L349,111L322,145L278,145L261,69L251,111Z"/>
<path d="M500,50L539,69L549,111L522,145L451,111L461,69L478,145Z"/>
<path d="M700,50L739,69L749,111L722,145L661,69L651,111L678,145Z"/>
<path d="M900,50L939,69L949,111L878,145L851,111L861,69L922,145Z"/>
<path d="M1100,50L1139,69L1149,111L1078,145L1061,69L1122,145L1051,111Z"/>
<path d="M1300,50L1339,69L1349,111L1278,145L1261,69L1251,111L1322,145Z"/>
<path d="M100,250L139,269L149,311L78,345L122,345L61,269L51,311Z"/>
<path d="M300,250L339,269L349,311L251,311L261,269L322,345L278,345Z"/>
<path d="M500,250L539,269L549,311L451,311L461,269L478,345L522,345Z"/>
<path d="M700,250L739,269L749,311L651,311L722,345L661,269L678,345Z"/>
<path d="M900,250L939,269L949,311L851,311L878,345L861,269L922,345Z"/>
<path d="M1100,250L1139,269L1149,311L1061,269L1078,345L1051,311L1122,345Z"/>
<path d="M1300,250L1339,269L1322,345L1278,345L1261,269L1349,311L1251,311Z"/>
<path d="M100,450L139,469L122,545L78,545L61,469L51,511L149,511Z"/>
<path d="M300,450L339,469L322,545L251,511L261,469L349,511L278,545Z"/>
<path d="M500,450L539,469L522,545L451,511L461,469L478,545L549,511Z"/>
<path d="M700,450L739,469L722,545L651,511L749,511L661,469L678,545Z"/>
<path d="M900,450L939,469L922,545L851,511L878,545L861,469L949,511Z"/>
<path d="M1100,450L1139,469L1122,545L1061,469L1149,511L1051,511L1078,545Z"/>
<path d="M1300,450L1339,469L1322,545L1261,469L1278,545L1251,511L1349,511Z"/>
<path d="M100,650L139,669L122,745L61,669L78,745L149,711L51,711Z"/>
<path d="M300,650L339,669L322,745L261,669L251,711L349,711L278,745Z"/>
<path d="M500,650L539,669L522,745L549,711L478,745L461,669L451,711Z"/>
<path d="M700,650L739,669L722,745L749,711L651,711L661,669L678,745Z"/>
<path d="M900,650L939,669L878,745L851,711L949,711L861,669L922,745Z"/>
<path d="M1100,650L1139,669L1078,745L1051,711L1122,745L1061,669L1149,711Z"/>
<path d="M1300,650L1339,669L1278,745L1261,669L1349,711L1251,711L1322,745Z"/>
<path d="M100,850L139,869L78,945L61,869L122,945L51,911L149,911Z"/>
<path d="M300,850L339,869L278,945L261,869L251,911L349,911L322,945Z"/>
<path d="M500,850L539,869L478,945L549,911L451,911L461,869L522,945Z"/>
<path d="M700,850L739,869L651,911L661,869L722,945L678,945L749,911Z"/>
<path d="M900,850L939,869L851,911L949,911L878,945L861,869L922,945Z"/>
<path d="M1100,850L1139,869L1051,911L1122,945L1061,869L1078,945L1149,911Z"/>
<path d="M1300,850L1349,911L1278,945L1261,869L1339,869L1322,945L1251,911Z"/>
<path d="M100,1050L149,1111L78,1145L61,1069L139,1069L51,1111L122,1145Z"/>
<path d="M300,1050L349,1111L251,1111L339,1069L322,1145L261,1069L278,1145Z"/>
<path d="M500,1050L549,1111L451,1111L539,1069L478,1145L461,1069L522,1145Z"/>
<path d="M700,1050L722,1145L661,1069L749,1111L651,1111L739,1069L678,1145Z"/>
</g>
</svg>