<?xml version="1.0" encoding="UTF-8" standalone="no"?>
<!DOCTYPE svg PUBLIC "-//W3C//DTD SVG 1.1//EN" "http://www.w3.org/Graphics/SVG/1.1/DTD/svg11.dtd">
<svg width="1400" height="1400" viewBox="0 0 1400 1400" xmlns="http://www.w3.org/2000/svg" xmlns:xlink="http://www.w3.org/1999/xlink">
<rect fill="#999" stroke="#000" x="0" y="0" width="1400" height="1400"/><rect fill="#fff" stroke="#000" x="0" y="0" width="200" height="200"/><text x="10" y="15">1111111</text><polyline points="100,50 139,69 149,111 122,145 78,145 51,111 61,69 100,50" stroke="black" stroke-width="3" fill="none" />
<circle cx="100" cy="50" r="5" fill="red" />
<circle cx="139" cy="69" r="5" fill="red" />
<circle cx="149" cy="111" r="5" fill="red" />
<circle cx="122" cy="145" r="5" fill="red" />
<circle cx="78" cy="145" r="5" fill="red" />
<circle cx="51" cy="111" r="5" fill="red" />
<circle cx="61" cy="69" r="5" fill="red" />
<circle cx="100" cy="50" r="3" fill="white" />
<rect fill="#fff" stroke="#000" x="200" y="0" width="200" height="200"/><text x="210" y="15">1111262</text><polyline points="300,50 339,69 349,111 322,145 278,145 261,69 251,111 300,50" stroke="black" stroke-width="3" fill="none" />
<circle cx="300" cy="50" r="5" fill="red" />
<circle cx="339" cy="69" r="5" fill="red" />
<circle cx="349" cy="111" r="5" fill="red" />
<circle cx="322" cy="145" r="5" fill="red" />
<circle cx="278" cy="145" r="5" fill="red" />
<circle cx="251" cy="111" r="5" fill="red" />
<circle cx="261" cy="69" r="5" fill="red" />
<circle cx="300" cy="50" r="3" fill="white" />
<rect fill="#fff" stroke="#000" x="400" y="0" width="200" height="200"/><text x="410" y="15">1112153</text><polyline points="500,50 539,69 549,111 522,145 451,111 461,69 478,145 500,50" stroke="black" stroke-width="3" fill="none" />
<circle cx="500" cy="50" r="5" fill="red" />
<circle cx="539" cy="69" r="5" fill="red" />
<circle cx="549" cy="111" r="5" fill="red" />
<circle cx="522" cy="145" r="5" fill="red" />
<circle cx="478" cy="145" r="5" fill="red" />
<circle cx="451" cy="111" r="5" fill="red" />
<circle cx="461" cy="69" r="5" fill="red" />
<circle cx="500" cy="50" r="3" fill="white" />
<rect fill="#fff" stroke="#000" x="600" y="0" width="200" height="200"/><text x="610" y="15">1113663</text><polyline points="700,50 739,69 749,111 722,145 661,69 651,111 678,145 700,50" stroke="black" stroke-width="3" fill="none" />
<circle cx="700" cy="50" r="5" fill="red" />
<circle cx="739" cy="69" r="5" fill="red" />
<circle cx="749" cy="111" r="5" fill="red" />
<circle cx="722" cy="145" r="5" fill="red" />
<circle cx="678" cy="145" r="5" fill="red" />
<circle cx="651" cy="111" r="5" fill="red" />
<circle cx="661" cy="69" r="5" fill="red" />
<circle cx="700" cy="50" r="3" fill="white" />
<rect fill="#fff" stroke="#000" x="800" y="0" width="200" height="200"/><text x="810" y="15">1121144</text><polyline points="900,50 939,69 949,111 878,145 851,111 861,69 922,145 900,50" stroke="black" stroke-width="3" fill="none" />
<circle cx="900" cy="50" r="5" fill="red" />
<circle cx="939" cy="69" r="5" fill="red" />
<circle cx="949" cy="111" r="5" fill="red" />
<circle cx="922" cy="145" r="5" fill="red" />
<circle cx="878" cy="145" r="5" fill="red" />
<circle cx="851" cy="111" r="5" fill="red" />
<circle cx="861" cy="69" r="5" fill="red" />
<circle cx="900" cy="50" r="3" fill="white" />
<rect fill="#fff" stroke="#000" x="1000" y="0" width="200" height="200"/><text x="1010" y="15">1122422</text><polyline points="1100,50 1139,69 1149,111 1078,145 1061,69 1122,145 1051,111 1100,50" stroke="black" stroke-width="3" fill="none" />
<circle cx="1100" cy="50" r="5" fill="red" />
<circle cx="1139" cy="69" r="5" fill="red" />
<circle cx="1149" cy="111" r="5" fill="red" />
<circle cx="1122" cy="145" r="5" fill="red" />
<circle cx="1078" cy="145" r="5" fill="red" />
<circle cx="1051" cy="111" r="5" fill="red" />
<circle cx="1061" cy="69" r="5" fill="red" />
<circle cx="1100" cy="50" r="3" fill="white" />
<rect fill="#fff" stroke="#000" x="1200" y="0" width="200" height="200"/><text x="1210" y="15">1122654</text><polyline points="1300,50 1339,69 1349,111 1278,145 1261,69 1251,111 1322,145 1300,50" stroke="black" stroke-width="3" fill="none" />
<circle cx="1300" cy="50" r="5" fill="red" />
<circle cx="1339" cy="69" r="5" fill="red" />
<circle cx="1349" cy="111" r="5" fill="red" />
<circle cx="1322" cy="145" r="5" fill="red" />
<circle cx="1278" cy="145" r="5" fill="red" />
<circle cx="1251" cy="111" r="5" fill="red" />
<circle cx="1261" cy="69" r="5" fill="red" />
<circle cx="1300" cy="50" r="3" fill="white" />
<rect fill="#fff" stroke="#000" x="0" y="200" width="200" height="200"/><text x="10" y="215">1126362</text><polyline points="100,250 139,269 149,311 78,345 122,345 61,269 51,311 100,250" stroke="black" stroke-width="3" fill="none" />
<circle cx="100" cy="250" r="5" fill="red" />
<circle cx="139" cy="269" r="5" fill="red" />
<circle cx="149" cy="311" r="5" fill="red" />
<circle cx="122" cy="345" r="5" fill="red" />
<circle cx="78" cy="345" r="5" fill="red" />
<circle cx="51" cy="311" r="5" fill="red" />
<circle cx="61" cy="269" r="5" fill="red" />
<circle cx="100" cy="250" r="3" fill="white" />
<rect fill="#fff" stroke="#000" x="200" y="200" width="200" height="200"/><text x="210" y="215">1131413</text><polyline points="300,250 339,269 349,311 251,311 261,269 322,345 278,345 300,250" stroke="black" stroke-width="3" fill="none" />
<circle cx="300" cy="250" r="5" fill="red" />
<circle cx="339" cy="269" r="5" fill="red" />
<circle cx="349" cy="311" r="5" fill="red" />
<circle cx="322" cy="345" r="5" fill="red" />
<circle cx="278" cy="345" r="5" fill="red" />
<circle cx="251" cy="311" r="5" fill="red" />
<circle cx="261" cy="269" r="5" fill="red" />
<circle cx="300" cy="250" r="3" fill="white" />
<rect fill="#fff" stroke="#000" x="400" y="200" width="200" height="200"/><text x="410" y="215">1131564</text><polyline points="500,250 539,269 549,311 451,311 461,269 478,345 522,345 500,250" stroke="black" stroke-width="3" fill="none" />
<circle cx="500" cy="250" r="5" fill="red" />
<circle cx="539" cy="269" r="5" fill="red" />
<circle cx="549" cy="311" r="5" fill="red" />
<circle cx="522" cy="345" r="5" fill="red" />
<circle cx="478" cy="345" r="5" fill="red" />
<circle cx="451" cy="311" r="5" fill="red" />
<circle cx="461" cy="269" r="5" fill="red" />
<circle cx="500" cy="250" r="3" fill="white" />
<rect fill="#fff" stroke="#000" x="600" y="200" width="200" height="200"/><text x="610" y="215">1135353</text><polyline points="700,250 739,269 749,311 651,311 722,345 661,269 678,345 700,250" stroke="black" stroke-width="3" fill="none" />
<circle cx="700" cy="250" r="5" fill="red" />
<circle cx="739" cy="269" r="5" fill="red" />
<circle cx="749" cy="311" r="5" fill="red" />
<circle cx="722" cy="345" r="5" fill="red" />
<circle cx="678" cy="345" r="5" fill="red" />
<circle cx="651" cy="311" r="5" fill="red" />
<circle cx="661" cy="269" r="5" fill="red" />
<circle cx="700" cy="250" r="3" fill="white" />
<rect fill="#fff" stroke="#000" x="800" y="200" width="200" height="200"/><text x="810" y="215">1136244</text><polyline points="900,250 939,269 949,311 851,311 878,345 861,269 922,345 900,250" stroke="black" stroke-width="3" fill="none" />
<circle cx="900" cy="250" r="5" fill="red" />
<circle cx="939" cy="269" r="5" fill="red" />
<circle cx="949" cy="311" r="5" fill="red" />
<circle cx="922" cy="345" r="5" fill="red" />
<circle cx="878" cy="345" r="5" fill="red" />
<circle cx="851" cy="311" r="5" fill="red" />
<circle cx="861" cy="269" r="5" fill="red" />
<circle cx="900" cy="250" r="3" fill="white" />
<rect fill="#fff" stroke="#000" x="1000" y="200" width="200" height="200"/><text x="1010" y="215">1145154</text><polyline points="1100,250 1139,269 1149,311 1061,269 1078,345 1051,311 1122,345 1100,250" stroke="black" stroke-width="3" fill="none" />
<circle cx="1100" cy="250" r="5" fill="red" />
<circle cx="1139" cy="269" r="5" fill="red" />
<circle cx="1149" cy="311" r="5" fill="red" />
<circle cx="1122" cy="345" r="5" fill="red" />
<circle cx="1078" cy="345" r="5" fill="red" />
<circle cx="1051" cy="311" r="5" fill="red" />
<circle cx="1061" cy="269" r="5" fill="red" />
<circle cx="1100" cy="250" r="3" fill="white" />
<rect fill="#fff" stroke="#000" x="1200" y="200" width="200" height="200"/><text x="1210" y="215">1212332</text><polyline points="1300,250 1339,269 1322,345 1278,345 1261,269 1349,311 1251,311 1300,250" stroke="black" stroke-width="3" fill="none" />
<circle cx="1300" cy="250" r="5" fill="red" />
<circle cx="1339" cy="269" r="5" fill="red" />
<circle cx="1349" cy="311" r="5" fill="red" />
<circle cx="1322" cy="345" r="5" fill="red" />
<circle cx="1278" cy="345" r="5" fill="red" />
<circle cx="1251" cy="311" r="5" fill="red" />
<circle cx="1261" cy="269" r="5" fill="red" />
<circle cx="1300" cy="250" r="3" fill="white" />
<rect fill="#fff" stroke="#000" x="0" y="400" width="200" height="200"/><text x="10" y="415">1212645</text><polyline points="100,450 139,469 122,545 78,545 61,469 51,511 149,511 100,450" stroke="black" stroke-width="3" fill="none" />
<circle cx="100" cy="450" r="5" fill="red" />
<circle cx="139" cy="469" r="5" fill="red" />
<circle cx="149" cy="511" r="5" fill="red" />
<circle cx="122" cy="545" r="5" fill="red" />
<circle cx="78" cy="545" r="5" fill="red" />
<circle cx="51" cy="511" r="5" fill="red" />
<circle cx="61" cy="469" r="5" fill="red" />
<circle cx="100" cy="450" r="3" fill="white" />
<rect fill="#fff" stroke="#000" x="200" y="400" width="200" height="200"/><text x="210" y="415">1221323</text><polyline points="300,450 339,469 322,545 251,511 261,469 349,511 278,545 300,450" stroke="black" stroke-width="3" fill="none" />
<circle cx="300" cy="450" r="5" fill="red" />
<circle cx="339" cy="469" r="5" fill="red" />
<circle cx="349" cy="511" r="5" fill="red" />
<circle cx="322" cy="545" r="5" fill="red" />
<circle cx="278" cy="545" r="5" fill="red" />
<circle cx="251" cy="511" r="5" fill="red" />
<circle cx="261" cy="469" r="5" fill="red" />
<circle cx="300" cy="450" r="3" fill="white" />
<rect fill="#fff" stroke="#000" x="400" y="400" width="200" height="200"/><text x="410" y="415">1221555</text><polyline points="500,450 539,469 522,545 451,511 461,469 478,545 549,511 500,450" stroke="black" stroke-width="3" fill="none" />
<circle cx="500" cy="450" r="5" fill="red" />
<circle cx="539" cy="469" r="5" fill="red" />
<circle cx="549" cy="511" r="5" fill="red" />
<circle cx="522" cy="545" r="5" fill="red" />
<circle cx="478" cy="545" r="5" fill="red" />
<circle cx="451" cy="511" r="5" fill="red" />
<circle cx="461" cy="469" r="5" fill="red" />
<circle cx="500" cy="450" r="3" fill="white" />
<rect fill="#fff" stroke="#000" x="600" y="400" width="200" height="200"/><text x="610" y="415">1224453</text><polyline points="700,450 739,469 722,545 651,511 749,511 661,469 678,545 700,450" stroke="black" stroke-width="3" fill="none" />
<circle cx="700" cy="450" r="5" fill="red" />
<circle cx="739" cy="469" r="5" fill="red" />
<circle cx="749" cy="511" r="5" fill="red" />
<circle cx="722" cy="545" r="5" fill="red" />
<circle cx="678" cy="545" r="5" fill="red" />
<circle cx="651" cy="511" r="5" fill="red" />
<circle cx="661" cy="469" r="5" fill="red" />
<circle cx="700" cy="450" r="3" fill="white" />
<rect fill="#fff" stroke="#000" x="800" y="400" width="200" height="200"/><text x="810" y="415">1226235</text><polyline points="900,450 939,469 922,545 851,511 878,545 861,469 949,511 900,450" stroke="black" stroke-width="3" fill="none" />
<circle cx="900" cy="450" r="5" fill="red" />
<circle cx="939" cy="469" r="5" fill="red" />
<circle cx="949" cy="511" r="5" fill="red" />
<circle cx="922" cy="545" r="5" fill="red" />
<circle cx="878" cy="545" r="5" fill="red" />
<circle cx="851" cy="511" r="5" fill="red" />
<circle cx="861" cy="469" r="5" fill="red" />
<circle cx="900" cy="450" r="3" fill="white" />
<rect fill="#fff" stroke="#000" x="1000" y="400" width="200" height="200"/><text x="1010" y="415">1233363</text><polyline points="1100,450 1139,469 1122,545 1061,469 1149,511 1051,511 1078,545 1100,450" stroke="black" stroke-width="3" fill="none" />
<circle cx="1100" cy="450" r="5" fill="red" />
<circle cx="1139" cy="469" r="5" fill="red" />
<circle cx="1149" cy="511" r="5" fill="red" />
<circle cx="1122" cy="545" r="5" fill="red" />
<circle cx="1078" cy="545" r="5" fill="red" />
<circle cx="1051" cy="511" r="5" fill="red" />
<circle cx="1061" cy="469" r="5" fill="red" />
<circle cx="1100" cy="450" r="3" fill="white" />
<rect fill="#fff" stroke="#000" x="1200" y="400" width="200" height="200"/><text x="1210" y="415">1235145</text><polyline points="1300,450 1339,469 1322,545 1261,469 1278,545 1251,511 1349,511 1300,450" stroke="black" stroke-width="3" fill="none" />
<circle cx="1300" cy="450" r="5" fill="red" />
<circle cx="1339" cy="469" r="5" fill="red" />
<circle cx="1349" cy="511" r="5" fill="red" />
<circle cx="1322" cy="545" r="5" fill="red" />
<circle cx="1278" cy="545" r="5" fill="red" />
<circle cx="1251" cy="511" r="5" fill="red" />
<circle cx="1261" cy="469" r="5" fill="red" />
<circle cx="1300" cy="450" r="3" fill="white" />
<rect fill="#fff" stroke="#000" x="0" y="600" width="200" height="200"/><text x="10" y="615">1235532</text><polyline points="100,650 139,669 122,745 61,669 78,745 149,711 51,711 100,650" stroke="black" stroke-width="3" fill="none" />
<circle cx="100" cy="650" r="5" fill="red" />
<circle cx="139" cy="669" r="5" fill="red" />
<circle cx="149" cy="711" r="5" fill="red" />
<circle cx="122" cy="745" r="5" fill="red" />
<circle cx="78" cy="745" r="5" fill="red" />
<circle cx="51" cy="711" r="5" fill="red" />
<circle cx="61" cy="669" r="5" fill="red" />
<circle cx="100" cy="650" r="3" fill="white" />
<rect fill="#fff" stroke="#000" x="200" y="600" width="200" height="200"/><text x="210" y="615">1236423</text><polyline points="300,650 339,669 322,745 261,669 251,711 349,711 278,745 300,650" stroke="black" stroke-width="3" fill="none" />
<circle cx="300" cy="650" r="5" fill="red" />
<circle cx="339" cy="669" r="5" fill="red" />
<circle cx="349" cy="711" r="5" fill="red" />
<circle cx="322" cy="745" r="5" fill="red" />
<circle cx="278" cy="745" r="5" fill="red" />
<circle cx="251" cy="711" r="5" fill="red" />
<circle cx="261" cy="669" r="5" fill="red" />
<circle cx="300" cy="650" r="3" fill="white" />
<rect fill="#fff" stroke="#000" x="400" y="600" width="200" height="200"/><text x="410" y="615">1262262</text><polyline points="500,650 539,669 522,745 549,711 478,745 461,669 451,711 500,650" stroke="black" stroke-width="3" fill="none" />
<circle cx="500" cy="650" r="5" fill="red" />
<circle cx="539" cy="669" r="5" fill="red" />
<circle cx="549" cy="711" r="5" fill="red" />
<circle cx="522" cy="745" r="5" fill="red" />
<circle cx="478" cy="745" r="5" fill="red" />
<circle cx="451" cy="711" r="5" fill="red" />
<circle cx="461" cy="669" r="5" fill="red" />
<circle cx="500" cy="650" r="3" fill="white" />
<rect fill="#fff" stroke="#000" x="600" y="600" width="200" height="200"/><text x="610" y="615">1263153</text><polyline points="700,650 739,669 722,745 749,711 651,711 661,669 678,745 700,650" stroke="black" stroke-width="3" fill="none" />
<circle cx="700" cy="650" r="5" fill="red" />
<circle cx="739" cy="669" r="5" fill="red" />
<circle cx="749" cy="711" r="5" fill="red" />
<circle cx="722" cy="745" r="5" fill="red" />
<circle cx="678" cy="745" r="5" fill="red" />
<circle cx="651" cy="711" r="5" fill="red" />
<circle cx="661" cy="669" r="5" fill="red" />
<circle cx="700" cy="650" r="3" fill="white" />
<rect fill="#fff" stroke="#000" x="800" y="600" width="200" height="200"/><text x="810" y="615">1314444</text><polyline points="900,650 939,669 878,745 851,711 949,711 861,669 922,745 900,650" stroke="black" stroke-width="3" fill="none" />
<circle cx="900" cy="650" r="5" fill="red" />
<circle cx="939" cy="669" r="5" fill="red" />
<circle cx="949" cy="711" r="5" fill="red" />
<circle cx="922" cy="745" r="5" fill="red" />
<circle cx="878" cy="745" r="5" fill="red" />
<circle cx="851" cy="711" r="5" fill="red" />
<circle cx="861" cy="669" r="5" fill="red" />
<circle cx="900" cy="650" r="3" fill="white" />
<rect fill="#fff" stroke="#000" x="1000" y="600" width="200" height="200"/><text x="1010" y="615">1315335</text><polyline points="1100,650 1139,669 1078,745 1051,711 1122,745 1061,669 1149,711 1100,650" stroke="black" stroke-width="3" fill="none" />
<circle cx="1100" cy="650" r="5" fill="red" />
<circle cx="1139" cy="669" r="5" fill="red" />
<circle cx="1149" cy="711" r="5" fill="red" />
<circle cx="1122" cy="745" r="5" fill="red" />
<circle cx="1078" cy="745" r="5" fill="red" />
<circle cx="1051" cy="711" r="5" fill="red" />
<circle cx="1061" cy="669" r="5" fill="red" />
<circle cx="1100" cy="650" r="3" fill="white" />
<rect fill="#fff" stroke="#000" x="1200" y="600" width="200" height="200"/><text x="1210" y="615">1323354</text><polyline points="1300,650 1339,669 1278,745 1261,669 1349,711 1251,711 1322,745 1300,650" stroke="black" stroke-width="3" fill="none" />
<circle cx="1300" cy="650" r="5" fill="red" />
<circle cx="1339" cy="669" r="5" fill="red" />
<circle cx="1349" cy="711" r="5" fill="red" />
<circle cx="1322" cy="745" r="5" fill="red" />
<circle cx="1278" cy="745" r="5" fill="red" />
<circle cx="1251" cy="711" r="5" fill="red" />
<circle cx="1261" cy="669" r="5" fill="red" />
<circle cx="1300" cy="650" r="3" fill="white" />
<rect fill="#fff" stroke="#000" x="0" y="800" width="200" height="200"/><text x="10" y="815">1324245</text><polyline points="100,850 139,869 78,945 61,869 122,945 51,911 149,911 100,850" stroke="black" stroke-width="3" fill="none" />
<circle cx="100" cy="850" r="5" fill="red" />
<circle cx="139" cy="869" r="5" fill="red" />
<circle cx="149" cy="911" r="5" fill="red" />
<circle cx="122" cy="945" r="5" fill="red" />
<circle cx="78" cy="945" r="5" fill="red" />
<circle cx="51" cy="911" r="5" fill="red" />
<circle cx="61" cy="869" r="5" fill="red" />
<circle cx="100" cy="850" r="3" fill="white" />
<rect fill="#fff" stroke="#000" x="200" y="800" width="200" height="200"/><text x="210" y="815">1326414</text><polyline points="300,850 339,869 278,945 261,869 251,911 349,911 322,945 300,850" stroke="black" stroke-width="3" fill="none" />
<circle cx="300" cy="850" r="5" fill="red" />
<circle cx="339" cy="869" r="5" fill="red" />
<circle cx="349" cy="911" r="5" fill="red" />
<circle cx="322" cy="945" r="5" fill="red" />
<circle cx="278" cy="945" r="5" fill="red" />
<circle cx="251" cy="911" r="5" fill="red" />
<circle cx="261" cy="869" r="5" fill="red" />
<circle cx="300" cy="850" r="3" fill="white" />
<rect fill="#fff" stroke="#000" x="400" y="800" width="200" height="200"/><text x="410" y="815">1353144</text><polyline points="500,850 539,869 478,945 549,911 451,911 461,869 522,945 500,850" stroke="black" stroke-width="3" fill="none" />
<circle cx="500" cy="850" r="5" fill="red" />
<circle cx="539" cy="869" r="5" fill="red" />
<circle cx="549" cy="911" r="5" fill="red" />
<circle cx="522" cy="945" r="5" fill="red" />
<circle cx="478" cy="945" r="5" fill="red" />
<circle cx="451" cy="911" r="5" fill="red" />
<circle cx="461" cy="869" r="5" fill="red" />
<circle cx="500" cy="850" r="3" fill="white" />
<rect fill="#fff" stroke="#000" x="600" y="800" width="200" height="200"/><text x="610" y="815">1414155</text><polyline points="700,850 739,869 651,911 661,869 722,945 678,945 749,911 700,850" stroke="black" stroke-width="3" fill="none" />
<circle cx="700" cy="850" r="5" fill="red" />
<circle cx="739" cy="869" r="5" fill="red" />
<circle cx="749" cy="911" r="5" fill="red" />
<circle cx="722" cy="945" r="5" fill="red" />
<circle cx="678" cy="945" r="5" fill="red" />
<circle cx="651" cy="911" r="5" fill="red" />
<circle cx="661" cy="869" r="5" fill="red" />
<circle cx="700" cy="850" r="3" fill="white" />
<rect fill="#fff" stroke="#000" x="800" y="800" width="200" height="200"/><text x="810" y="815">1442244</text><polyline points="900,850 939,869 851,911 949,911 878,945 861,869 922,945 900,850" stroke="black" stroke-width="3" fill="none" />
<circle cx="900" cy="850" r="5" fill="red" />
<circle cx="939" cy="869" r="5" fill="red" />
<circle cx="949" cy="911" r="5" fill="red" />
<circle cx="922" cy="945" r="5" fill="red" />
<circle cx="878" cy="945" r="5" fill="red" />
<circle cx="851" cy="911" r="5" fill="red" />
<circle cx="861" cy="869" r="5" fill="red" />
<circle cx="900" cy="850" r="3" fill="white" />
<rect fill="#fff" stroke="#000" x="1000" y="800" width="200" height="200"/><text x="1010" y="815">1453555</text><polyline points="1100,850 1139,869 1051,911 1122,945 1061,869 1078,945 1149,911 1100,850" stroke="black" stroke-width="3" fill="none" />
<circle cx="1100" cy="850" r="5" fill="red" />
<circle cx="1139" cy="869" r="5" fill="red" />
<circle cx="1149" cy="911" r="5" fill="red" />
<circle cx="1122" cy="945" r="5" fill="red" />
<circle cx="1078" cy="945" r="5" fill="red" />
<circle cx="1051" cy="911" r="5" fill="red" />
<circle cx="1061" cy="869" r="5" fill="red" />
<circle cx="1100" cy="850" r="3" fill="white" />
<rect fill="#fff" stroke="#000" x="1200" y="800" width="200" height="200"/><text x="1210" y="815">2222222</text><polyline points="1300,850 1349,911 1278,945 1261,869 1339,869 1322,945 1251,911 1300,850" stroke="black" stroke-width="3" fill="none" />
<circle cx="1300" cy="850" r="5" fill="red" />
<circle cx="1339" cy="869" r="5" fill="red" />
<circle cx="1349" cy="911" r="5" fill="red" />
<circle cx="1322" cy="945" r="5" fill="red" />
<circle cx="1278" cy="945" r="5" fill="red" />
<circle cx="1251" cy="911" r="5" fill="red" />
<circle cx="1261" cy="869" r="5" fill="red" />
<circle cx="1300" cy="850" r="3" fill="white" />
<rect fill="#fff" stroke="#000" x="0" y="1000" width="200" height="200"/><text x="10" y="1015">2222454</text><polyline points="100,1050 149,1111 78,1145 61,1069 139,1069 51,1111 122,1145 100,1050" stroke="black" stroke-width="3" fill="none" />
<circle cx="100" cy="1050" r="5" fill="red" />
<circle cx="139" cy="1069" r="5" fill="red" />
<circle cx="149" cy="1111" r="5" fill="red" />
<circle cx="122" cy="1145" r="5" fill="red" />
<circle cx="78" cy="1145" r="5" fill="red" />
<circle cx="51" cy="1111" r="5" fill="red" />
<circle cx="61" cy="1069" r="5" fill="red" />
<circle cx="100" cy="1050" r="3" fill="white" />
<rect fill="#fff" stroke="#000" x="200" y="1000" width="200" height="200"/><text x="210" y="1015">2332353</text><polyline points="300,1050 349,1111 251,1111 339,1069 322,1145 261,1069 278,1145 300,1050" stroke="black" stroke-width="3" fill="none" />
<circle cx="300" cy="1050" r="5" fill="red" />
<circle cx="339" cy="1069" r="5" fill="red" />
<circle cx="349" cy="1111" r="5" fill="red" />
<circle cx="322" cy="1145" r="5" fill="red" />
<circle cx="278" cy="1145" r="5" fill="red" />
<circle cx="251" cy="1111" r="5" fill="red" />
<circle cx="261" cy="1069" r="5" fill="red" />
<circle cx="300" cy="1050" r="3" fill="white" />
<rect fill="#fff" stroke="#000" x="400" y="1000" width="200" height="200"/><text x="410" y="1015">2333244</text><polyline points="500,1050 549,1111 451,1111 539,1069 478,1145 461,1069 522,1145 500,1050" stroke="black" stroke-width="3" fill="none" />
<circle cx="500" cy="1050" r="5" fill="red" />
<circle cx="539" cy="1069" r="5" fill="red" />
<circle cx="549" cy="1111" r="5" fill="red" />
<circle cx="522" cy="1145" r="5" fill="red" />
<circle cx="478" cy="1145" r="5" fill="red" />
<circle cx="451" cy="1111" r="5" fill="red" />
<circle cx="461" cy="1069" r="5" fill="red" />
<circle cx="500" cy="1050" r="3" fill="white" />
<rect fill="#fff" stroke="#000" x="600" y="1000" width="200" height="200"/><text x="610" y="1015">3333333</text><polyline points="700,1050 722,1145 661,1069 749,1111 651,1111 739,1069 678,1145 700,1050" stroke="black" stroke-width="3" fill="none" />
<circle cx="700" cy="1050" r="5" fill="red" />
<circle cx="739" cy="1069" r="5" fill="red" />
<circle cx="749" cy="1111" r="5" fill="red" />
<circle cx="722" cy="1145" r="5" fill="red" />
<circle cx="678" cy="1145" r="5" fill="red" />
<circle cx="651" cy="1111" r="5" fill="red" />
<circle cx="661" cy="1069" r="5" fill="red" />
<circle cx="700" cy="1050" r="3" fill="white" />
</svg>